<svg xmlns="http://www.w3.org/2000/svg" xmlns:xlink="http://www.w3.org/1999/xlink" width="1303.242" height="205.498" viewBox="0 0 1303.242 205.498"><defs><linearGradient id="a" x1="0.5" x2="0.5" y2="1" gradientUnits="objectBoundingBox"><stop offset="0" stop-color="#fff"/><stop offset="1" stop-color="#fff" stop-opacity="0"/></linearGradient></defs><path d="M86.475-131.592q-18.8,0-29.111,14.126T47.051-78.1q0,52.529,39.424,52.529,16.543,0,40.068-8.271v27.93Q107.207,2.148,83.359,2.148q-34.268,0-52.422-20.786T12.783-78.311q0-24.492,8.916-42.915a64.441,64.441,0,0,1,25.62-28.252q16.7-9.829,39.155-9.829,22.881,0,45.977,11.064l-10.742,27.07a177.816,177.816,0,0,0-17.725-7.3A52.876,52.876,0,0,0,86.475-131.592ZM159.951,0V-157.051h33.3V-27.5h63.7V0Zm220.43,0L368.994-37.383H311.738L300.352,0H264.473L319.9-157.7h40.713L416.26,0ZM361.045-65.312q-15.791-50.811-17.778-57.471t-2.847-10.527q-3.545,13.75-20.3,68ZM436.025,0V-157.051h33.3V0ZM575.352,0,537.539-123.213h-.967q2.041,37.6,2.041,50.166V0H508.857V-157.051h45.332l37.168,120.1H592l39.424-120.1h45.332V0H645.713V-74.336q0-5.264.161-12.139T647.324-123h-.967L605.859,0ZM757,46.191a72.825,72.825,0,0,1-19.658-2.363V16.113a65.143,65.143,0,0,0,15.684,2.148q10.957,0,15.684-6.821t4.727-21.323V-157.051h33.3V-10.1q0,27.5-12.568,41.895T757,46.191ZM974.1-157.051V-55.43q0,17.4-7.788,30.508a50.686,50.686,0,0,1-22.5,20.088Q929.092,2.148,909,2.148q-30.293,0-47.051-15.522T845.2-55.859V-157.051h33.193v96.143q0,18.154,7.3,26.641t24.17,8.486q16.328,0,23.687-8.54t7.358-26.8v-95.928ZM1012.559,0V-157.051h33.3V0ZM1152.1-131.592q-18.8,0-29.111,14.126T1112.676-78.1q0,52.529,39.424,52.529,16.543,0,40.068-8.271v27.93q-19.336,8.057-43.184,8.057-34.268,0-52.422-20.786t-18.154-59.673q0-24.492,8.916-42.915a64.44,64.44,0,0,1,25.62-28.252q16.7-9.829,39.155-9.829,22.881,0,45.977,11.064l-10.742,27.07a177.823,177.823,0,0,0-17.725-7.3A52.876,52.876,0,0,0,1152.1-131.592ZM1316.025,0h-90.449V-157.051h90.449v27.285h-57.148v34.482h53.174V-68h-53.174v40.5h57.148Z" transform="translate(-12.783 159.307)" fill="url(#a)"/></svg>