<svg xmlns="http://www.w3.org/2000/svg" xmlns:xlink="http://www.w3.org/1999/xlink" width="855.445" height="165.858" viewBox="0 0 855.445 165.858">
  <defs>
    <linearGradient id="linear-gradient" x1="0.5" x2="0.5" y2="1" gradientUnits="objectBoundingBox">
      <stop offset="0" stop-color="#fff"/>
      <stop offset="1" stop-color="#fff" stop-opacity="0"/>
    </linearGradient>
  </defs>
  <path id="Path_37224" data-name="Path 37224" d="M88.612,0,49.769-126.573h-.993q2.1,38.623,2.1,51.534V0H20.3V-161.334H66.873L105.055-37.961h.662l40.5-123.373h46.568V0H160.893V-76.363q0-5.407.166-12.47t1.49-37.52h-.993L119.952,0ZM233.394,0V-161.334H267.6V0ZM451.338,0H407.859L337.676-122.049h-.993q2.1,32.333,2.1,46.127V0H308.212V-161.334h43.147L421.433-40.5h.772q-1.655-31.45-1.655-44.472v-76.363h30.788Zm40.609,0V-161.334h34.209V0ZM709.892,0H666.413L596.229-122.049h-.993q2.1,32.333,2.1,46.127V0H566.766V-161.334h43.147L679.986-40.5h.772Q679.1-71.949,679.1-84.971v-76.363h30.788ZM811.746-90.6h64V-6.952a180.445,180.445,0,0,1-29.3,7.118,190.838,190.838,0,0,1-28.084,2.042q-36.526,0-55.783-21.463T743.328-80.888q0-39.064,22.346-60.914t61.962-21.85a119.889,119.889,0,0,1,47.893,9.932l-11.366,27.367a81.178,81.178,0,0,0-36.747-8.828q-22.181,0-35.533,14.9T778.53-80.226q0,26.264,10.759,40.113t31.285,13.849a110.659,110.659,0,0,0,21.739-2.207V-62.128H811.746Z" transform="translate(-20.305 163.651)" fill="url(#linear-gradient)"/>
</svg>
