<svg xmlns="http://www.w3.org/2000/svg" xmlns:xlink="http://www.w3.org/1999/xlink" width="1389.326" height="165.858" viewBox="0 0 1389.326 165.858">
  <defs>
    <linearGradient id="linear-gradient" x1="0.5" x2="0.5" y2="1" gradientUnits="objectBoundingBox">
      <stop offset="0" stop-color="#fff"/>
      <stop offset="1" stop-color="#fff" stop-opacity="0"/>
    </linearGradient>
  </defs>
  <path id="Path_37223" data-name="Path 37223" d="M20.3-161.334h50.21q34.319,0,49.824,9.766t15.5,31.064q0,14.456-6.787,23.726a27.11,27.11,0,0,1-18.042,11.146v1.1q15.339,3.421,22.125,12.8t6.787,24.939q0,22.07-15.946,34.43T80.667,0H20.3ZM54.514-97.44H74.377q13.9,0,20.139-4.3t6.235-14.235q0-9.27-6.787-13.3T72.5-133.3H54.514Zm0,27.146V-28.25H76.8q14.125,0,20.856-5.407t6.731-16.553q0-20.084-28.691-20.084ZM265.064,0H172.148V-161.334h92.916V-133.3H206.357v35.423h54.624v28.029H206.357v41.6h58.707Zm95.9,0H326.751V-132.863h-43.81v-28.471H404.77v28.471H360.96ZM512.583,0l-11.7-38.4H442.068L430.371,0H393.514l56.941-162h41.823L549.44,0ZM492.72-67.094q-16.222-52.2-18.263-59.038t-2.924-10.814q-3.642,14.125-20.856,69.853ZM727.217,0l-11.7-38.4H656.7L645,0H608.147l56.941-162h41.823L764.074,0ZM707.354-67.094q-16.222-52.2-18.263-59.038t-2.924-10.814q-3.642,14.125-20.856,69.853Zm141.029-68.087q-19.311,0-29.905,14.511T807.884-80.226q0,53.962,40.5,53.962,16.994,0,41.161-8.5V-6.069q-19.863,8.276-44.361,8.276-35.2,0-53.852-21.353t-18.649-61.3q0-25.16,9.159-44.085a66.2,66.2,0,0,1,26.319-29.022q17.16-10.1,40.223-10.1,23.5,0,47.23,11.366l-11.035,27.809a182.663,182.663,0,0,0-18.208-7.5A54.318,54.318,0,0,0,848.383-135.181Zm139.484,0q-19.311,0-29.905,14.511T947.368-80.226q0,53.962,40.5,53.962,16.994,0,41.161-8.5V-6.069q-19.863,8.276-44.361,8.276-35.2,0-53.852-21.353t-18.649-61.3q0-25.16,9.159-44.085a66.2,66.2,0,0,1,26.319-29.022q17.16-10.1,40.223-10.1,23.5,0,47.23,11.366l-11.035,27.809a182.663,182.663,0,0,0-18.208-7.5A54.318,54.318,0,0,0,987.867-135.181ZM1156.264,0h-92.916V-161.334h92.916V-133.3h-58.707v35.423h54.624v28.029h-54.624v41.6h58.707Zm128.891-44.8q0,21.85-15.725,34.43t-43.754,12.58q-25.822,0-45.686-9.711V-39.285a188.271,188.271,0,0,0,27.643,10.263,81.8,81.8,0,0,0,20.691,2.979q11.256,0,17.27-4.3t6.014-12.8a14.131,14.131,0,0,0-2.648-8.442,29.636,29.636,0,0,0-7.78-7.118q-5.131-3.421-20.912-10.925-14.787-6.952-22.181-13.353a50.126,50.126,0,0,1-11.808-14.9,42.512,42.512,0,0,1-4.414-19.863q0-21.408,14.511-33.657t40.113-12.249a94.723,94.723,0,0,1,24,2.979,164.979,164.979,0,0,1,23.891,8.387l-11.035,26.595a161.454,161.454,0,0,0-21.353-7.394,68.731,68.731,0,0,0-16.608-2.1q-9.711,0-14.9,4.524a14.924,14.924,0,0,0-5.187,11.808,14.613,14.613,0,0,0,2.1,7.89,23.053,23.053,0,0,0,6.676,6.511q4.58,3.145,21.684,11.311,22.622,10.814,31.009,21.684T1285.154-44.8Zm124.477,0q0,21.85-15.725,34.43t-43.754,12.58q-25.822,0-45.686-9.711V-39.285a188.271,188.271,0,0,0,27.643,10.263,81.8,81.8,0,0,0,20.691,2.979q11.256,0,17.27-4.3t6.014-12.8a14.131,14.131,0,0,0-2.648-8.442,29.636,29.636,0,0,0-7.78-7.118q-5.131-3.421-20.912-10.925-14.787-6.952-22.181-13.353a50.126,50.126,0,0,1-11.808-14.9,42.512,42.512,0,0,1-4.414-19.863q0-21.408,14.511-33.657t40.113-12.249a94.723,94.723,0,0,1,24,2.979,164.979,164.979,0,0,1,23.891,8.387l-11.035,26.595a161.454,161.454,0,0,0-21.353-7.394,68.731,68.731,0,0,0-16.608-2.1q-9.711,0-14.9,4.524a14.924,14.924,0,0,0-5.187,11.808,14.613,14.613,0,0,0,2.1,7.89,23.053,23.053,0,0,0,6.676,6.511q4.58,3.145,21.684,11.311,22.622,10.814,31.009,21.684T1409.631-44.8Z" transform="translate(-20.305 163.651)" fill="url(#linear-gradient)"/>
</svg>
