<svg xmlns="http://www.w3.org/2000/svg" xmlns:xlink="http://www.w3.org/1999/xlink" width="1084.316" height="161.67"
    viewBox="0 0 1084.316 161.67">
    <defs>
        <linearGradient id="a" x1="0.5" x2="0.5" y2="1" gradientUnits="objectBoundingBox">
            <stop offset="0" stop-color="#fff" />
            <stop offset="1" stop-color="#fff" stop-opacity="0" />
        </linearGradient>
    </defs>
    <path
        d="M172.734,0h-37.92l-21.27-82.5q-1.182-4.4-4.028-18.208t-3.276-18.53q-.645,5.8-3.223,18.638T99.043-82.285L77.881,0H40.068L0-157.051H32.764L52.852-71.328q5.264,23.74,7.627,41.143.645-6.123,2.954-18.96t4.351-19.927l22.881-87.979h31.475L145.02-69.072q1.5,5.908,3.76,18.047t3.438,20.84q1.074-8.379,3.438-20.894t4.3-20.249l19.98-85.723H212.7ZM322.91,0H232.461V-157.051H322.91v27.285H265.762v34.482h53.174V-68H265.762v40.5H322.91Zm32.764,0V-157.051h33.3V-27.5h63.7V0ZM542.266-131.592q-18.8,0-29.111,14.126T502.842-78.1q0,52.529,39.424,52.529,16.543,0,40.068-8.271v27.93Q563,2.148,539.15,2.148q-34.268,0-52.422-20.786T468.574-78.311q0-24.492,8.916-42.915a64.44,64.44,0,0,1,25.62-28.252q16.7-9.829,39.155-9.829,22.881,0,45.977,11.064L577.5-121.172a177.811,177.811,0,0,0-17.725-7.3A52.876,52.876,0,0,0,542.266-131.592ZM753.887-78.74q0,38.994-19.336,59.941T679.121,2.148q-36.094,0-55.43-20.947T604.355-78.955q0-39.209,19.39-59.888t55.591-20.679q36.2,0,55.376,20.84T753.887-78.74Zm-114.619,0q0,26.318,9.99,39.639t29.863,13.32q39.854,0,39.854-52.959,0-53.066-39.639-53.066-19.873,0-29.971,13.374T639.268-78.74ZM852.93,0,815.117-123.213h-.967q2.041,37.6,2.041,50.166V0H786.436V-157.051h45.332l37.168,120.1h.645L909-157.051h45.332V0H923.291V-74.336q0-5.264.161-12.139T924.9-123h-.967L883.438,0Zm231.387,0H993.867V-157.051h90.449v27.285h-57.148v34.482h53.174V-68h-53.174v40.5h57.148Z"
        transform="translate(0 159.521)" fill="url(#a)" />
</svg>