<svg xmlns="http://www.w3.org/2000/svg" width="35.939" height="28" viewBox="0 0 35.939 28">
  <g id="_552834871_Shape_5_xA0_Clipping_Path_1_" data-name="552834871_Shape_5_xA0_Clipping_Path_1_" transform="translate(-2.031 -6)">
    <g id="Group_1416" data-name="Group 1416">
      <path id="Path_37212" data-name="Path 37212" d="M37.073,10.667a4.383,4.383,0,0,0-3.594-3.545,81.513,81.513,0,0,0-26.956,0A4.389,4.389,0,0,0,2.93,10.667a48.922,48.922,0,0,0,0,18.666,4.389,4.389,0,0,0,3.594,3.545,81.513,81.513,0,0,0,26.956,0,4.389,4.389,0,0,0,3.594-3.545A48.942,48.942,0,0,0,37.073,10.667ZM16,27V13l11,7Z" fill="#fff"/>
    </g>
  </g>
</svg>
