<svg xmlns="http://www.w3.org/2000/svg" xmlns:xlink="http://www.w3.org/1999/xlink" width="342" height="342" viewBox="0 0 342 342"><defs><clipPath id="b"><rect width="342" height="342"/></clipPath></defs><g id="a" clip-path="url(#b)"><g transform="translate(22.95 189.068) rotate(-9)"><path d="M249.461,51.613a8.576,8.576,0,0,0-3.871.946c-.344.086-32.946,16.258-64.946,16.258-16.172,0-22.193-9.548-24.516-17.2h41.72c10.409,0,25.806-6.882,25.806-25.806S208.257,0,197.848,0H111.827C69.161,0,56.688,21.935,53.075,34.408H0V137.634H58.666c8.43,3.183,49.376,17.2,104.774,17.2,46.881,0,111.827-53.763,111.827-77.419C275.267,58.494,259.87,51.613,249.461,51.613ZM51.613,120.43H17.2V51.613H51.613Zm111.827,17.2c-45.677,0-81.462-10.323-94.623-14.71V43.1C68.9,40.43,70.709,17.2,111.827,17.2h85.935c3.957.086,8.688,1.634,8.688,8.6s-4.731,8.516-8.6,8.6H146.236a8.627,8.627,0,0,0-8.6,8.6c0,14.882,8.946,43.011,43.011,43.011,31.312,0,62.021-13.161,70.451-17.032,3.527.516,6.968,2.495,6.968,8.344C257.289,88,204.042,137.634,163.44,137.634Z" transform="translate(0 0)"/></g><g transform="translate(85.672 10)" fill="rgba(0,0,0,0.45)" stroke="#000" stroke-width="15"><ellipse cx="73.816" cy="73.816" rx="73.816" ry="73.816" stroke="none"/><ellipse cx="73.816" cy="73.816" rx="66.316" ry="66.316" fill="none"/></g></g></svg>