<svg xmlns="http://www.w3.org/2000/svg" width="107.826" height="105.572" viewBox="0 0 107.826 105.572">
  <g id="pickaxe" transform="translate(-1023.371 -494.608)">
    <g id="Group_1426" data-name="Group 1426" transform="translate(1015.537 494.608)">
      <path id="Path_37225" data-name="Path 37225" d="M705.557,535.509l-8.539-3.437a2.892,2.892,0,0,1-1.681-3.959l47.03-95.43a3.466,3.466,0,0,1,4.381-1.519l8.539,3.437a2.892,2.892,0,0,1,1.681,3.959l-47.03,95.43A3.466,3.466,0,0,1,705.557,535.509Z" transform="translate(-683.657 -430.197)" fill="#fff"/>
      <path id="Path_37226" data-name="Path 37226" d="M917.906,425.351c-19.306-8.6-39.1-11.21-55.574-8.5,3.193,3.3,6.259,6.709,9.4,10.055a194.9,194.9,0,0,1,37.583,12.458c26.285,11.707,47.649,27.686,60.844,43.99C967.1,461.595,947.257,438.424,917.906,425.351Z" transform="translate(-854.498 -415.826)" fill="#f0f0f0"/>
      <path id="Path_37227" data-name="Path 37227" d="M1113.617,514.157a82.467,82.467,0,0,0-12.582-15.766,102.721,102.721,0,0,0-16.074-12.9,115.564,115.564,0,0,0-18.443-9.751,112.107,112.107,0,0,0-20.4-6.4,96.854,96.854,0,0,0-21.916-2.133q-1.368.029-2.734.1c-.75.04-.755,1.211,0,1.171a93.22,93.22,0,0,1,21.708,1.472,110.652,110.652,0,0,1,20.376,5.837,114.817,114.817,0,0,1,18.6,9.3,103.211,103.211,0,0,1,16.189,12.331,83.708,83.708,0,0,1,12.95,15.234q.674,1.033,1.314,2.089A.586.586,0,0,0,1113.617,514.157Z" transform="translate(-1005.645 -464.787)" fill="#fcfcfc"/>
      <path id="Path_37228" data-name="Path 37228" d="M1622.781,534.888l-20.592-9.171a1.9,1.9,0,0,1-.962-2.507l8.347-18.741a1.9,1.9,0,0,1,2.507-.962l20.591,9.171a1.9,1.9,0,0,1,.962,2.507l-8.347,18.741A1.9,1.9,0,0,1,1622.781,534.888Z" transform="translate(-1558.634 -499.244)" fill="#fff"/>
    </g>
  </g>
</svg>
