<svg xmlns="http://www.w3.org/2000/svg" xmlns:xlink="http://www.w3.org/1999/xlink" width="930" height="547" viewBox="0 0 930 547">
  <defs>
    <linearGradient id="linear-gradient" x1="0.991" y1="0.056" x2="0.079" y2="0.98" gradientUnits="objectBoundingBox">
      <stop offset="0" stop-color="#851fff"/>
      <stop offset="1" stop-color="#431080"/>
    </linearGradient>
    <filter id="Rectangle_620" x="0" y="0" width="930" height="547" filterUnits="userSpaceOnUse">
      <feOffset dy="3" input="SourceAlpha"/>
      <feGaussianBlur stdDeviation="18.5" result="blur"/>
      <feFlood flood-opacity="0.506"/>
      <feComposite operator="in" in2="blur"/>
    </filter>
    <filter id="Rectangle_620-2" x="0" y="0" width="930" height="547" filterUnits="userSpaceOnUse">
      <feOffset dy="3" input="SourceAlpha"/>
      <feGaussianBlur stdDeviation="3" result="blur-2"/>
      <feFlood flood-opacity="0.443" result="color"/>
      <feComposite operator="out" in="SourceGraphic" in2="blur-2"/>
      <feComposite operator="in" in="color"/>
      <feComposite operator="in" in2="SourceGraphic"/>
    </filter>
  </defs>
  <g id="Group_1256" data-name="Group 1256" transform="translate(-17597 -4800)">
    <g id="Group_1242" data-name="Group 1242" transform="translate(17654 4854)">
      <g data-type="innerShadowGroup">
        <g transform="matrix(1, 0, 0, 1, -57, -54)" filter="url(#Rectangle_620)">
          <rect id="Rectangle_620-3" data-name="Rectangle 620" width="816" height="433" rx="70" transform="translate(57 54)" stroke="#fff" stroke-width="3" fill="url(#linear-gradient)"/>
        </g>
        <rect id="Rectangle_620-4" data-name="Rectangle 620" width="816" height="433" rx="70" fill="url(#linear-gradient)"/>
        <g transform="matrix(1, 0, 0, 1, -57, -54)" filter="url(#Rectangle_620-2)">
          <rect id="Rectangle_620-5" data-name="Rectangle 620" width="816" height="433" rx="70" transform="translate(57 54)" fill="#fff"/>
        </g>
        <rect id="Rectangle_620-6" data-name="Rectangle 620" width="816" height="433" rx="70" fill="none" stroke="#fff" stroke-width="3"/>
      </g>
      <path id="Path_7081" data-name="Path 7081" d="M-207.419-41.837c0-.107.214-.642.214-.749,2.247-5.885,7.169-13.375,13.268-15.729,4.066-1.6,11.663-.642,11.663-6.955,0-4.494-5.671-6.206-9.309-6.206-4.708,0-9.737,1.819-13.8,4.066-13.8,7.918-22.47,25.038-22.47,40.767,0,15.515,9.309,27.606,25.573,27.606,18.511,0,31.886-15.836,31.886-33.812,0-7.811-3.638-9.095-10.807-9.095-5.992,0-11.984.535-17.976,1.07-1.819.107-3.638.535-5.457.535C-205.6-40.339-207.419-40.446-207.419-41.837Zm-3.317,16.264a2.748,2.748,0,0,1,2.461-2.568c4.28-.856,13.8-1.177,18.4-1.177.749,0,1.926.321,1.926,1.284a7.882,7.882,0,0,1-.428,1.5c-1.391,5.243-6.955,15.515-13.268,15.515C-208.383-11.021-210.736-20.33-210.736-25.573Zm97.156,20.33c0-4.28-5.35-5.992-8.881-5.992-4.387,0-7.811,3.745-12.3,3.745a1.973,1.973,0,0,1-1.926-2.14c0-3.531,0-7.169.321-10.7a3.408,3.408,0,0,1,2.675-2.889c4.173-1.07,13.7-4.6,13.7-9.844,0-3.959-5.136-6.206-8.453-6.206-1.926,0-3.745,1.07-5.35,1.07-.856,0-.963-.749-.963-1.5,0-2.247.428-4.6.642-6.848.321-3.21.428-6.42.642-9.63.107-1.5,0-2.889,0-4.387,0-1.819,1.284-1.177,2.461-1.177,4.494,0,17.762-1.391,17.762-7.6,0-4.066-5.029-6.206-8.453-6.206a10.525,10.525,0,0,0-4.494.856h-.642c-3,0-5.992.749-9.1.749-4.28,0-9.951.856-13.054,4.066-1.391,1.391-1.6,3.21-1.712,5.136-.535,18.511-3.531,37.022-3.531,55.533,0,9.2-1.177,15.729,10.486,15.729,5.35,0,21.828-3,26.429-5.885C-115.4-.642-113.58-2.782-113.58-5.243ZM-81.052-7.7c0,5.136,3.745,7.276,8.453,7.276,3.852,0,8.881-1.712,8.881-6.313,0-17.441-1.5-34.775-1.5-52.216,0-2.247,2.247-2.14,3.852-2.14,1.712,0,3.317.214,5.029.214,3.317,0,7.811-1.284,7.811-5.243A6.939,6.939,0,0,0-55.693-73.4c-11.984,0-23.968.642-35.952.642-5.029,0-8.239,1.177-8.239,6.848,0,5.35,3.959,5.457,8.132,5.457,2.247,0,4.387.107,6.634.107a2.362,2.362,0,0,1,2.568,2.354c.535,10.486.535,20.972.963,31.458C-81.373-20.223-81.052-14.017-81.052-7.7Zm59.171-55.105a2.4,2.4,0,0,1,2.461,2.354v47.4c0,1.926-.321,3.852-.321,5.778,0,5.564,3,8.453,8.56,8.453A10.561,10.561,0,0,0-4.976-.642C-2.514-2.461-2.621-4.815-2.621-7.6V-62.06c0-2.14.963-1.284,2.461-1.391l7.49-.321c3.424-.107,7.7-.321,9.951-3.317a4.324,4.324,0,0,0,.963-2.675c0-4.815-5.778-6.206-9.523-6.206-2.247,0-4.494.321-6.741.428-10.7.428-21.4.214-32.1.963-3.317.214-7.7,2.033-7.7,5.885,0,4.173,4.922,5.992,8.453,5.992C-26.91-62.7-24.342-62.809-21.882-62.809ZM31.726-11.663c0,7.169-.749,14.338,8.881,14.338,3.852,0,8.667-1.819,8.667-6.313V-30.709c0-6.42.321-9.1.321-15.515,0-6.955-.214-12.519-8.881-12.519-3.745,0-8.56,1.712-8.56,6.206v23.219C32.154-23.433,31.726-17.548,31.726-11.663ZM41.57-83.781c-14.231,0-11.556,15.194-.428,15.194C55.159-68.587,52.591-83.781,41.57-83.781ZM83.086-38.092c0-1.712-.535-12.091,1.819-12.091a1.525,1.525,0,0,1,1.284.642c7.169,9.951,10.272,22.577,18.832,35.31,2.033,3,5.457,10.379,9.1,10.379,1.926,0,5.564-.535,7.169-1.605,3.1-1.926,4.28-5.778,4.708-9.1,2.247-18.725,3.21-31.244,3.21-46.866,0-6.1-2.033-9.63-8.667-9.63s-9.309,2.889-9.309,9.416c0,2.354.321,4.708.321,7.062,0,4.815.428,12.305-.107,17.12,0,.214,0,1.07-.428,1.07-2.568-1.5-8.881-29.746-28.141-29.746-10.7,0-16.264,3.1-16.264,14.873,0,9.63-.535,31.03.214,40.553.214,2.247-.214,4.815,1.177,6.848,1.712,2.461,5.243,3.317,8.025,3.317,3.852,0,8.453-1.712,8.453-6.313C84.477-17.976,83.086-26.857,83.086-38.092Zm98.547.963c-4.28,0-12.733,1.07-12.733,6.848,0,3.638,4.6,6.206,7.811,6.206,1.177,0,2.14-.428,3.317-.428.749,0,1.6.107,1.6,1.07,0,2.889-4.922,5.778-7.49,5.778-7.49,0-11.663-8.025-11.663-14.659,0-8.453,6.527-19.367,14.017-23.219a13.2,13.2,0,0,1,3.959-1.284c3.1,0,6.1,1.605,9.2,1.605,3.531,0,8.025-1.926,8.025-5.992,0-6.634-11.449-7.7-16.264-7.7-19.153,0-36.166,17.762-36.166,36.808,0,15.408,13.91,26.857,28.783,26.857,9.63,0,18.939-4.387,23.647-13.054,1.819-3.424,3.424-7.7,3.424-11.663,0-5.457-5.671-5.885-9.844-6.42A72.961,72.961,0,0,0,181.633-37.129ZM-297.193,47.45c0-9.1-23.968-7.811-29.746-7.811-8.881,0-13.8.321-22.684.321-4.28,0-9.309.856-9.309,6.634s11.449,5.778,15.194,5.778c3,0,2.033-.321,5.029-.321a2.252,2.252,0,0,1,2.461,2.247v45.8c0,5.457-.321,5.35-.321,10.807,0,7.276-.642,13.7,8.881,13.7,6.634,0,8.774-3,8.774-9.2,0-2.568-.214-5.029-.214-7.49V56.545a2.47,2.47,0,0,1,2.461-2.354c3.959,0,6.848-.535,10.165-.535C-302.863,53.656-297.193,51.73-297.193,47.45Zm65.377,65.377c0-5.029-2.354-5.243-5.136-6.741-6.741-3.638-13.161-8.025-19.688-12.091a1.759,1.759,0,0,1-.856-1.284,1.768,1.768,0,0,1,.856-1.391c9.523-7.169,19.581-17.013,19.581-29.96,0-12.412-11.984-17.869-22.791-17.869-4.815,0-18.725,1.819-21.935,5.243-3.317,3.531-1.5,9.416-1.5,13.482.321,15.408.749,30.923,2.033,46.331.535,6.527,1.926,12.947,9.951,12.947,3.317,0,8.56-1.819,8.56-5.885,0-2.354-.963-4.708-.963-7.169,0-.642.107-1.5.856-1.5,1.6,0,14.338,11.235,23.54,11.235C-235.882,118.177-231.815,116.786-231.815,112.827Zm-22.791-51.681c0,5.992-4.6,12.947-8.774,16.906-.321.214-.642.535-.963.535-.749,0-.963-.856-.963-1.391-.428-6.42-.642-13.054-.642-19.474,0-1.6,4.708-1.712,5.992-1.712C-256.319,56.01-254.607,57.4-254.607,61.146Zm69.657-17.976a9.534,9.534,0,0,0-5.457,1.5c-10.165,7.6-18.19,27.82-23.005,42.479-.642,1.819-2.354,2.889-2.354,5.029,0,.963.321,2.033.321,3,0,3.424-1.926,6.955-1.926,10.379,0,4.494,5.029,6.1,8.774,6.1,8.025,0,8.346-5.885,9.63-11.984.321-1.391.214-1.391,1.712-1.5,3.959-.321,7.918-.642,11.877-1.177a37.12,37.12,0,0,1,4.815-.642c.963,0,1.712,5.885,1.819,7.062.749,6.42-.107,11.663,9.2,11.663,3.745,0,8.667-1.819,8.667-6.206,0-9.63-3.1-19.153-5.457-28.462-2.568-10.272-7.383-19.474-9.63-29.853A9.064,9.064,0,0,0-184.949,43.17Zm-8.988,42.372c-.535,0-.749-.642-.749-1.07,0-2.14,5.885-17.013,7.062-17.013.428,0,.642.749.749,1.07.428,1.712,3.531,12.84,3.531,13.8a2.288,2.288,0,0,1-2.033,2.14A58.488,58.488,0,0,1-193.937,85.542ZM-79.126,47.129c0-5.35-3.531-7.7-8.56-7.7a11.046,11.046,0,0,0-3.21.428c-5.457,1.605-5.35,5.671-5.564,10.486-.535,9.523-.963,23.54-3.1,32.528-.107.428-.321,1.07-.963,1.07a1.63,1.63,0,0,1-1.07-.642c-6.527-7.062-19.153-22.577-29.318-22.577-3.852,0-6.955,1.819-8.132,5.671-3.21,10.914-4.922,23-6.313,34.347-.321,3-1.07,6.1-1.07,9.1a11.629,11.629,0,0,0,.107,1.926c.535,3.959,5.243,5.136,8.56,5.136a15.963,15.963,0,0,0,2.247-.214c7.169-1.5,6.206-8.881,6.848-14.552a160.642,160.642,0,0,1,3.1-20.33c.107-.535.321-1.284.963-1.284a1.631,1.631,0,0,1,1.177.642c6.634,6.313,12.305,14.552,18.939,21.186a13.319,13.319,0,0,0,9.2,3.852,7.231,7.231,0,0,0,7.062-4.387c6.955-14.659,7.276-31.351,8.346-47.187C-79.661,52.051-79.126,49.59-79.126,47.129Zm19.26,17.548c0,12.519,5.992,25.252,5.992,37.236,0,.963-.107,1.926-1.177,2.14-3.317.642-8.025,1.284-8.025,5.885,0,4.922,5.992,6.313,9.844,6.313,10.914,0,16.157-5.029,16.157-15.836,0-12.305-5.671-23.861-5.671-36.166,0-3.424.749-8.774,4.815-9.737,1.177-.321,2.247-.214,3.424-.642,2.354-.856,4.494-2.889,4.494-5.564,0-4.28-4.922-5.778-8.346-5.778C-51.841,42.528-59.867,51.623-59.867,64.677ZM19.635,42.1a13.023,13.023,0,0,0-4.066.749C6.046,46.273-2.514,75.27-5.51,84.793c-1.177,3.638-1.605,7.062-4.066,10.165-1.5,1.926-1.177,2.568-1.177,4.708,0,4.387-4.815,9.523-4.815,13.268,0,4.387,5.243,6.313,8.881,6.313,10.486,0,9.951-14.873,15.408-14.873H19.528c6.955,0,0,18.511,14.017,18.511,3.959,0,8.881-1.926,8.881-6.527,0-3.317-1.6-6.313-2.247-9.416-2.889-13.268-4.173-26.857-6.42-40.232C32.475,59.006,29.907,42.1,19.635,42.1ZM16.746,72.916c.428.321,2.782,15.515,2.782,17.013a1.967,1.967,0,0,1-2.033,2.033H12.787a1.83,1.83,0,0,1-1.926-1.819c0-1.07,1.284-4.6,1.712-5.778C13,82.974,16.1,73.023,16.746,72.916Zm90.308,31.244c0-4.387-1.5-8.881-5.35-8.881-5.243,0-10.058,5.136-15.194,5.136a6.272,6.272,0,0,1-3.317-.963c-6.741-4.066-8.667-13.91-8.667-21.186,0-6.848,2.247-21.507,11.342-21.507,4.387,0,7.6,3.531,11.984,3.531,3.21,0,5.35-3.424,5.35-7.276,0-6.42-12.519-8.453-17.655-8.453-18.618,0-28.676,15.3-28.676,32.742,0,16.8,9.951,35.31,28.676,35.31C90.79,112.613,107.054,110.687,107.054,104.16Zm29.318-49.969a2.4,2.4,0,0,1,2.461,2.354v47.4c0,1.926-.321,3.852-.321,5.778,0,5.564,3,8.453,8.56,8.453a10.561,10.561,0,0,0,6.206-1.819c2.461-1.819,2.354-4.173,2.354-6.955V54.94c0-2.14.963-1.284,2.461-1.391l7.49-.321c3.424-.107,7.7-.321,9.951-3.317a4.324,4.324,0,0,0,.963-2.675c0-4.815-5.778-6.206-9.523-6.206-2.247,0-4.494.321-6.741.428-10.7.428-21.4.214-32.1.963-3.317.214-7.7,2.033-7.7,5.885,0,4.173,4.922,5.992,8.453,5.992C131.342,54.3,133.91,54.191,136.371,54.191Zm53.607,51.146c0,7.169-.749,14.338,8.881,14.338,3.852,0,8.667-1.819,8.667-6.313V86.291c0-6.42.321-9.1.321-15.515,0-6.955-.214-12.519-8.881-12.519-3.745,0-8.56,1.712-8.56,6.206V87.682C190.406,93.567,189.979,99.452,189.979,105.337Zm9.844-72.118c-14.231,0-11.556,15.194-.428,15.194C213.411,48.413,210.843,33.219,199.822,33.219Zm54.356,17.976c-17.762,0-31.137,15.408-31.137,32.635,0,15.087,10.914,27.285,26.322,27.285,17.869,0,34.133-17.12,34.133-34.775C283.5,61.039,267.447,51.195,254.179,51.195ZM249.685,98.7c-6.313,0-9.309-9.309-9.309-14.445,0-6.848,3.531-16.585,10.165-19.688,8.453-4.173,15.408,5.992,15.408,12.305C265.949,84.579,258.459,98.7,249.685,98.7Zm106.572,1.391V51.73c0-5.457-3.424-7.7-8.667-7.7-5.885,0-8.988,3-8.988,8.881,0,2.247.321,4.494.321,6.741V77.3c0,.321,0,1.177-.535,1.177-2.782-.963-16.8-27.82-30.281-27.82-6.313,0-8.453,3-8.453,8.881,0,9.523-.107,19.046-.856,28.569-.428,5.778-.856,11.556-.856,17.334,0,5.564,3.638,7.7,8.774,7.7a17.562,17.562,0,0,0,2.461-.214c5.885-1.07,6.206-5.243,6.206-10.272,0-7.918.749-15.943,1.391-23.861,0-.321,0-1.177.642-1.177,1.07.321,13.161,17.548,14.873,19.9,3.745,5.243,8.025,12.84,15.408,12.84C354.866,110.366,356.257,106.3,356.257,100.094ZM-89.666,191.842a2.141,2.141,0,0,1-2.354-2.354c0-7.7.642-15.3.642-23.005,0-4.6-3.852-6.527-7.918-6.527-10.914,0-9.523,8.346-9.523,16.157,0,16.478-.963,32.849-.963,49.327,0,7.49-1.5,15.943,8.667,15.943,4.494,0,8.774-2.14,8.774-7.169,0-3.745-.321-7.6-.321-11.342,0-4.922,0-9.844.214-14.766.107-3.745.107-3.959,3.959-4.173l12.947-.642a2.492,2.492,0,0,1,2.568,2.354v16.264c0,1.177-.428,2.354-.428,3.531,0,4.6,4.6,7.276,8.667,7.276,10.7,0,9.2-9.2,9.2-16.906,0-9.951-.642-20.009-.642-29.96,0-5.35.214-10.7.214-16.05,0-5.885-2.354-8.56-8.346-8.56-3.852,0-8.881,1.605-8.881,6.206,0,1.712.107,3.531.107,5.243,0,5.243-.214,10.593-.214,15.836,0,2.782,0,2.568-2.675,2.675C-80.571,191.414-85.065,191.842-89.666,191.842ZM-5.778,159.1a13.023,13.023,0,0,0-4.066.749c-9.523,3.424-18.083,32.421-21.079,41.944-1.177,3.638-1.6,7.062-4.066,10.165-1.5,1.926-1.177,2.568-1.177,4.708,0,4.387-4.815,9.523-4.815,13.268,0,4.387,5.243,6.313,8.881,6.313,10.486,0,9.951-14.873,15.408-14.873H-5.885c6.955,0,0,18.511,14.017,18.511,3.959,0,8.881-1.926,8.881-6.527,0-3.317-1.6-6.313-2.247-9.416-2.889-13.268-4.173-26.857-6.42-40.232C7.062,176.006,4.494,159.1-5.778,159.1Zm-2.889,30.816c.428.321,2.782,15.515,2.782,17.013a1.967,1.967,0,0,1-2.033,2.033h-4.708a1.83,1.83,0,0,1-1.926-1.819c0-1.07,1.284-4.6,1.712-5.778C-12.412,199.974-9.309,190.023-8.667,189.916Zm62.488-12.947c0-3.638,7.7-2.782,10.272-3.638,2.461-.856,5.029-3,5.029-5.778,0-4.494-5.243-5.671-8.774-5.671-9.951,0-23.433,3.21-23.433,15.622,0,12.2,12.3,27.071,12.3,37.022,0,7.383-10.486,3.959-14.873,7.062a6.508,6.508,0,0,0-2.889,5.029c0,4.28,5.243,5.457,8.667,5.457,11.77,0,26.215-4.173,26.215-18.4C66.34,201.258,53.821,184.459,53.821,176.969Zm49.755,44.512c0-2.889-1.284-4.387-1.284-6.313v-7.276c0-.856,1.284-1.177,1.926-1.177h1.819c2.568,0,5.243-.107,7.811-.321,1.07-.107,2.354-.321,3.424-.321a2.287,2.287,0,0,1,2.461,2.14V219.02c0,2.247-.321,4.494-.321,6.634,0,5.885,2.675,8.667,8.56,8.667,6.634,0,8.667-3.21,8.667-9.416,0-10.807-.107-21.614-.428-32.421-.107-4.815-.214-9.523-.642-14.338-.321-4.173-.214-9.737-1.926-13.482-1.391-3-4.6-4.28-7.811-4.28-3.745,0-8.56,1.605-8.56,6.1,0,2.14.749,4.173.963,6.313a153.905,153.905,0,0,1,1.07,18.618,2.346,2.346,0,0,1-2.033,2.461,81.931,81.931,0,0,1-12.519.749,2.275,2.275,0,0,1-2.461-2.354V175.257c0-1.819.214-3.638.214-5.564,0-5.885-3.1-8.239-8.881-8.239-3.638,0-7.6,1.5-8.132,5.564a60.807,60.807,0,0,0-.321,6.313c0,4.173.321,8.453.321,12.626v31.672c0,1.712-.214,3.317-.214,4.922,0,5.243,3.531,7.7,8.453,7.7a10.2,10.2,0,0,0,9.1-5.136A6.231,6.231,0,0,0,103.576,221.481Z" transform="translate(400.103 136.528) rotate(-4)" fill="#fff"/>
    </g>
  </g>
</svg>
