<svg xmlns="http://www.w3.org/2000/svg" xmlns:xlink="http://www.w3.org/1999/xlink" width="798.359" height="161.67" viewBox="0 0 798.359 161.67">
  <defs>
    <linearGradient id="linear-gradient" x1="0.5" x2="0.5" y2="1" gradientUnits="objectBoundingBox">
      <stop offset="0" stop-color="#fff"/>
      <stop offset="1" stop-color="#fff" stop-opacity="0"/>
    </linearGradient>
  </defs>
  <path id="Path_7048" data-name="Path 7048" d="M53.066-83.145H64.023q15.361,0,22.988-6.069t7.627-17.671q0-11.709-6.392-17.295t-20.034-5.586H53.066Zm75.2-24.922q0,25.352-15.845,38.779T67.354-55.859H53.066V0h-33.3V-157.051H69.932q28.574,0,43.452,12.3T128.262-108.066ZM157.91,0V-157.051h33.3V-27.5h63.7V0ZM282.2,0V-157.051h33.3V0ZM494.355,0H452.031l-68.32-118.809h-.967q2.041,31.475,2.041,44.9V0H355.029V-157.051h42L465.244-39.424H466q-1.611-30.615-1.611-43.291v-74.336h29.971ZM660.215,0H622.4L581.26-66.172l-14.072,10.1V0h-33.3V-157.051h33.3v71.865l13.105-18.477,42.539-53.389h36.953L605-87.549Zm157.91-78.74q0,38.994-19.336,59.941T743.359,2.148q-36.094,0-55.43-20.947T668.594-78.955q0-39.209,19.39-59.888t55.591-20.679q36.2,0,55.376,20.84T818.125-78.74Zm-114.619,0q0,26.318,9.99,39.639t29.863,13.32q39.854,0,39.854-52.959,0-53.066-39.639-53.066-19.873,0-29.971,13.374T703.506-78.74Z" transform="translate(-19.766 159.521)" fill="url(#linear-gradient)"/>
</svg>
