<svg id="visual" viewBox="0 0 960 540" width="960" height="540" xmlns="http://www.w3.org/2000/svg" xmlns:xlink="http://www.w3.org/1999/xlink" version="1.1"><rect x="0" y="0" width="960" height="540" fill="#001220"></rect><path d="M0 472L17.8 468.8C35.7 465.7 71.3 459.3 106.8 456.2C142.3 453 177.7 453 213.2 457.7C248.7 462.3 284.3 471.7 320 472.2C355.7 472.7 391.3 464.3 426.8 462.3C462.3 460.3 497.7 464.7 533.2 467.8C568.7 471 604.3 473 640 473.3C675.7 473.7 711.3 472.3 746.8 473.7C782.3 475 817.7 479 853.2 481C888.7 483 924.3 483 942.2 483L960 483L960 541L942.2 541C924.3 541 888.7 541 853.2 541C817.7 541 782.3 541 746.8 541C711.3 541 675.7 541 640 541C604.3 541 568.7 541 533.2 541C497.7 541 462.3 541 426.8 541C391.3 541 355.7 541 320 541C284.3 541 248.7 541 213.2 541C177.7 541 142.3 541 106.8 541C71.3 541 35.7 541 17.8 541L0 541Z" fill="#851fff"></path><path d="M0 491L17.8 487C35.7 483 71.3 475 106.8 474.8C142.3 474.7 177.7 482.3 213.2 483.8C248.7 485.3 284.3 480.7 320 481C355.7 481.3 391.3 486.7 426.8 489C462.3 491.3 497.7 490.7 533.2 490C568.7 489.3 604.3 488.7 640 489.7C675.7 490.7 711.3 493.3 746.8 493.2C782.3 493 817.7 490 853.2 489C888.7 488 924.3 489 942.2 489.5L960 490L960 541L942.2 541C924.3 541 888.7 541 853.2 541C817.7 541 782.3 541 746.8 541C711.3 541 675.7 541 640 541C604.3 541 568.7 541 533.2 541C497.7 541 462.3 541 426.8 541C391.3 541 355.7 541 320 541C284.3 541 248.7 541 213.2 541C177.7 541 142.3 541 106.8 541C71.3 541 35.7 541 17.8 541L0 541Z" fill="#771de5"></path><path d="M0 493L17.8 494.7C35.7 496.3 71.3 499.7 106.8 499.2C142.3 498.7 177.7 494.3 213.2 492.8C248.7 491.3 284.3 492.7 320 493.5C355.7 494.3 391.3 494.7 426.8 493.2C462.3 491.7 497.7 488.3 533.2 486.7C568.7 485 604.3 485 640 485.8C675.7 486.7 711.3 488.3 746.8 491.3C782.3 494.3 817.7 498.7 853.2 498.7C888.7 498.7 924.3 494.3 942.2 492.2L960 490L960 541L942.2 541C924.3 541 888.7 541 853.2 541C817.7 541 782.3 541 746.8 541C711.3 541 675.7 541 640 541C604.3 541 568.7 541 533.2 541C497.7 541 462.3 541 426.8 541C391.3 541 355.7 541 320 541C284.3 541 248.7 541 213.2 541C177.7 541 142.3 541 106.8 541C71.3 541 35.7 541 17.8 541L0 541Z" fill="#6a1acc"></path><path d="M0 512L17.8 510C35.7 508 71.3 504 106.8 505C142.3 506 177.7 512 213.2 512.8C248.7 513.7 284.3 509.3 320 508.2C355.7 507 391.3 509 426.8 508.7C462.3 508.3 497.7 505.7 533.2 504.3C568.7 503 604.3 503 640 502C675.7 501 711.3 499 746.8 497.8C782.3 496.7 817.7 496.3 853.2 497.8C888.7 499.3 924.3 502.7 942.2 504.3L960 506L960 541L942.2 541C924.3 541 888.7 541 853.2 541C817.7 541 782.3 541 746.8 541C711.3 541 675.7 541 640 541C604.3 541 568.7 541 533.2 541C497.7 541 462.3 541 426.8 541C391.3 541 355.7 541 320 541C284.3 541 248.7 541 213.2 541C177.7 541 142.3 541 106.8 541C71.3 541 35.7 541 17.8 541L0 541Z" fill="#5d17b3"></path><path d="M0 529L17.8 529C35.7 529 71.3 529 106.8 527.2C142.3 525.3 177.7 521.7 213.2 520.7C248.7 519.7 284.3 521.3 320 520.7C355.7 520 391.3 517 426.8 517C462.3 517 497.7 520 533.2 520.5C568.7 521 604.3 519 640 518.3C675.7 517.7 711.3 518.3 746.8 519.8C782.3 521.3 817.7 523.7 853.2 523.7C888.7 523.7 924.3 521.3 942.2 520.2L960 519L960 541L942.2 541C924.3 541 888.7 541 853.2 541C817.7 541 782.3 541 746.8 541C711.3 541 675.7 541 640 541C604.3 541 568.7 541 533.2 541C497.7 541 462.3 541 426.8 541C391.3 541 355.7 541 320 541C284.3 541 248.7 541 213.2 541C177.7 541 142.3 541 106.8 541C71.3 541 35.7 541 17.8 541L0 541Z" fill="#51149b"></path></svg>